<svg xmlns="http://www.w3.org/2000/svg" version="1.1" xmlns:xlink="http://www.w3.org/1999/xlink" xmlns:svgjs="http://svgjs.dev/svgjs" width="186" height="104"><svg width="186" height="104" viewBox="0 0 186 104" fill="none" xmlns="http://www.w3.org/2000/svg">
<path d="M10.25 101.8C9.1 99.05 9.3 96.15 10.75 94.75C11.4 94.05 12.2 93.5 12.5 93.5C12.8 93.5 11.6 91.85 9.9 89.9C5.85 85.25 3.8 82.3 1.9 78.25C0.349998 74.9 -0.400006 70.2 0.199994 67.8C0.599994 66.2 2.85 65 5.5 65C6.6 65 7.5 64.95 7.5 64.9C7.5 64.8 7.14999 63.65 6.69999 62.25C6.29999 60.9 5.59999 57.85 5.19999 55.5C3.74999 46.8 4.4 45 9.15 44.6C11.65 44.4 12.25 44.55 15.2 46.2C17.6 47.55 18.5 47.85 18.5 47.3C18.5 45.95 21 44.5 23.35 44.5C25.95 44.5 33 47.05 40.5 50.65C45.4 53 46.15 53.6 51.6 59.1C54.8 62.35 57.75 65.05 58.1 65.05C58.45 65.1 62.25 65.2 66.5 65.2C73.9 65.3 74.65 65.4 82.25 67.4C88.75 69.1 91.1 69.5 94.7 69.5C98.9 69.5 99.45 69.35 103.2 67.55C110.2 64.15 111.8 62.15 119.1 47.4C125.25 35 129 28.9 133.1 24.65L135.15 22.55L134.25 20.75C132.9 17.85 133.35 11.3 135.05 8.7C136.65 6.3 140.5 4.1 143.8 3.7C145.15 3.5 146.6 3.05 147.05 2.65C148.75 1.2 153 0 156.45 0C159.95 0 162.6 0.8 165.1 2.55C165.8 3.1 167.15 3.5 168.1 3.5C172.05 3.5 177.2 7.35 178.5 11.3C179.3 13.7 178.9 19.25 177.8 21.4L176.95 23.05L179.4 26.4C184.95 33.9 186.2 37.85 184 40.65C182.55 42.45 180.4 42.7 175.05 41.75L170.45 40.9L168.95 42.3C168.15 43.1 166.85 44.95 166.1 46.5C164.9 48.95 164.75 49.8 164.8 54C164.8 56.6 165.1 60 165.45 61.5C165.8 63 166.95 67.85 168 72.25C171 84.7 171.7 89.75 171.35 96.6C171.2 99.85 170.9 102.75 170.75 103C170.6 103.3 168.1 103.5 165.25 103.5H160.05L160.15 96.4C160.25 89 160.1 88.25 157.45 77.1C154.3 64.05 153.85 61.1 153.85 53.75C153.85 45.65 154.6 42.5 157.75 37.8C160.15 34.15 162.3 32.45 165.6 31.45L168.25 30.7L166.15 29.15C165 28.35 162.45 27.15 160.5 26.5C157.25 25.45 156.65 25.4 153.45 25.95C148.6 26.75 145.75 28.35 142 32.3C137.55 37.1 135.2 40.95 128.7 54.3C123.75 64.45 122.55 66.45 119.95 69.2C109.9 79.95 97.15 82.3 76.9 77.15C70.15 75.45 69.25 75.35 61.5 75.3C53.3 75.25 53.25 75.25 50.75 73.8C49.4 73 45.8 69.8 42.75 66.75C37.8 61.75 36.8 61 33.15 59.4L29 57.55V58.75C29 60.6 28.5 61.5 26.95 62.25C25.2 63.2 22.15 63.2 20.5 62.25C19.8 61.85 19.05 61.55 18.85 61.5C18.45 61.5 20.35 65.1 22.3 67.95C23.15 69.2 23.5 70.4 23.5 72.1C23.5 75.85 21.5 77.3 16.75 76.9C15.5 76.8 14.5 76.85 14.5 76.95C14.5 77.65 20.55 84.4 23.35 86.85C29.2 91.9 29 91.65 29 94.65C29 97.65 28.15 98.85 24.9 100.15C23.65 100.7 23.05 101.3 22.9 102.1C22.75 103.2 22.6 103.25 16.85 103.4L10.95 103.55L10.25 101.8ZM167.5 15.2C167.5 14.2 166.75 13.95 163.3 13.85C160.4 13.75 159.9 13.6 158.4 12.15C157.45 11.25 156.5 10.5 156.25 10.5C156 10.5 155.05 11.25 154.1 12.15C152.6 13.6 152.15 13.75 149.15 13.85C145.65 13.95 144.2 14.7 145 15.95C145.35 16.6 146 16.6 149.35 16.1C154.45 15.3 160.6 15.35 163.75 16.2C166.3 16.85 167.5 16.55 167.5 15.2Z" fill="black"></path>
</svg><style>@media (prefers-color-scheme: light) { :root { filter: none; } }
@media (prefers-color-scheme: dark) { :root { filter: none; } }
</style></svg>